<svg width="557" height="228" viewBox="0 0 557 228" fill="none" xmlns="http://www.w3.org/2000/svg">
<mask id="path-1-outside-1_110_533" maskUnits="userSpaceOnUse" x="0" y="0" width="557" height="228" fill="black">
<rect fill="white" width="557" height="228"/>
<path d="M1.40625 180.386V153.753L95.6889 4.81818H116.676V44.0227H103.359L35.9233 150.77V152.474H165.149V180.386H1.40625ZM104.851 223V172.29L105.064 160.145V4.81818H136.278V223H104.851ZM278.235 226.622C261.403 226.551 247.021 222.112 235.089 213.305C223.157 204.499 214.031 191.679 207.71 174.847C201.388 158.014 198.228 137.737 198.228 114.016C198.228 90.3651 201.388 70.1591 207.71 53.3977C214.102 36.6364 223.263 23.8523 235.195 15.0455C247.198 6.23863 261.545 1.83522 278.235 1.83522C294.925 1.83522 309.237 6.27414 321.168 15.152C333.1 23.9588 342.227 36.7429 348.548 53.5043C354.94 70.1946 358.136 90.3651 358.136 114.016C358.136 137.808 354.975 158.121 348.654 174.953C342.333 191.714 333.207 204.534 321.275 213.412C309.343 222.219 294.996 226.622 278.235 226.622ZM278.235 198.178C293.008 198.178 304.549 190.969 312.859 176.551C321.239 162.134 325.43 141.288 325.43 114.016C325.43 95.9048 323.512 80.5994 319.677 68.0994C315.913 55.5284 310.479 46.0114 303.377 39.5483C296.346 33.0142 287.965 29.7471 278.235 29.7471C263.533 29.7471 251.992 36.9915 243.612 51.4801C235.231 65.9687 231.005 86.8139 230.934 114.016C230.934 132.197 232.816 147.574 236.58 160.145C240.415 172.645 245.849 182.126 252.88 188.589C259.911 194.982 268.363 198.178 278.235 198.178ZM391.348 180.386V153.753L485.63 4.81818H506.618V44.0227H493.301L425.865 150.77V152.474H555.091V180.386H391.348ZM494.792 223V172.29L495.005 160.145V4.81818H526.22V223H494.792Z"/>
</mask>
<path d="M1.40625 180.386V153.753L95.6889 4.81818H116.676V44.0227H103.359L35.9233 150.77V152.474H165.149V180.386H1.40625ZM104.851 223V172.29L105.064 160.145V4.81818H136.278V223H104.851ZM278.235 226.622C261.403 226.551 247.021 222.112 235.089 213.305C223.157 204.499 214.031 191.679 207.71 174.847C201.388 158.014 198.228 137.737 198.228 114.016C198.228 90.3651 201.388 70.1591 207.71 53.3977C214.102 36.6364 223.263 23.8523 235.195 15.0455C247.198 6.23863 261.545 1.83522 278.235 1.83522C294.925 1.83522 309.237 6.27414 321.168 15.152C333.1 23.9588 342.227 36.7429 348.548 53.5043C354.94 70.1946 358.136 90.3651 358.136 114.016C358.136 137.808 354.975 158.121 348.654 174.953C342.333 191.714 333.207 204.534 321.275 213.412C309.343 222.219 294.996 226.622 278.235 226.622ZM278.235 198.178C293.008 198.178 304.549 190.969 312.859 176.551C321.239 162.134 325.43 141.288 325.43 114.016C325.43 95.9048 323.512 80.5994 319.677 68.0994C315.913 55.5284 310.479 46.0114 303.377 39.5483C296.346 33.0142 287.965 29.7471 278.235 29.7471C263.533 29.7471 251.992 36.9915 243.612 51.4801C235.231 65.9687 231.005 86.8139 230.934 114.016C230.934 132.197 232.816 147.574 236.58 160.145C240.415 172.645 245.849 182.126 252.88 188.589C259.911 194.982 268.363 198.178 278.235 198.178ZM391.348 180.386V153.753L485.63 4.81818H506.618V44.0227H493.301L425.865 150.77V152.474H555.091V180.386H391.348ZM494.792 223V172.29L495.005 160.145V4.81818H526.22V223H494.792Z" fill="white" fill-opacity="0.03"/>
<path d="M1.40625 180.386H0.40625V181.386H1.40625V180.386ZM1.40625 153.753L0.561321 153.218L0.40625 153.463V153.753H1.40625ZM95.6889 4.81818V3.81818H95.1384L94.844 4.28329L95.6889 4.81818ZM116.676 4.81818H117.676V3.81818H116.676V4.81818ZM116.676 44.0227V45.0227H117.676V44.0227H116.676ZM103.359 44.0227V43.0227H102.808L102.514 43.4886L103.359 44.0227ZM35.9233 150.77L35.0779 150.236L34.9233 150.48V150.77H35.9233ZM35.9233 152.474H34.9233V153.474H35.9233V152.474ZM165.149 152.474H166.149V151.474H165.149V152.474ZM165.149 180.386V181.386H166.149V180.386H165.149ZM104.851 223H103.851V224H104.851V223ZM104.851 172.29L103.851 172.272L103.851 172.281V172.29H104.851ZM105.064 160.145L106.064 160.162L106.064 160.154V160.145H105.064ZM105.064 4.81818V3.81818H104.064V4.81818H105.064ZM136.278 4.81818H137.278V3.81818H136.278V4.81818ZM136.278 223V224H137.278V223H136.278ZM2.40625 180.386V153.753H0.40625V180.386H2.40625ZM2.25118 154.288L96.5339 5.35305L94.844 4.28329L0.561321 153.218L2.25118 154.288ZM95.6889 5.81818H116.676V3.81818H95.6889V5.81818ZM115.676 4.81818V44.0227H117.676V4.81818H115.676ZM116.676 43.0227H103.359V45.0227H116.676V43.0227ZM102.514 43.4886L35.0779 150.236L36.7687 151.304L104.205 44.5568L102.514 43.4886ZM34.9233 150.77V152.474H36.9233V150.77H34.9233ZM35.9233 153.474H165.149V151.474H35.9233V153.474ZM164.149 152.474V180.386H166.149V152.474H164.149ZM165.149 179.386H1.40625V181.386H165.149V179.386ZM105.851 223V172.29H103.851V223H105.851ZM105.851 172.307L106.064 160.162L104.064 160.127L103.851 172.272L105.851 172.307ZM106.064 160.145V4.81818H104.064V160.145H106.064ZM105.064 5.81818H136.278V3.81818H105.064V5.81818ZM135.278 4.81818V223H137.278V4.81818H135.278ZM136.278 222H104.851V224H136.278V222ZM278.235 226.622L278.231 227.622H278.235V226.622ZM207.71 174.847L208.646 174.495L207.71 174.847ZM207.71 53.3977L206.775 53.0414L206.774 53.0449L207.71 53.3977ZM235.195 15.0455L234.604 14.2392L234.601 14.2409L235.195 15.0455ZM321.168 15.152L320.571 15.9543L320.574 15.9566L321.168 15.152ZM348.548 53.5043L347.612 53.8571L347.614 53.8619L348.548 53.5043ZM348.654 174.953L349.59 175.306L349.59 175.305L348.654 174.953ZM321.275 213.412L321.869 214.217L321.872 214.214L321.275 213.412ZM312.859 176.551L311.994 176.049L311.992 176.052L312.859 176.551ZM319.677 68.0994L318.719 68.3863L318.721 68.3927L319.677 68.0994ZM303.377 39.5483L302.696 40.2809L302.704 40.2879L303.377 39.5483ZM243.612 51.4801L242.746 50.9794L243.612 51.4801ZM230.934 114.016L229.934 114.013V114.016H230.934ZM236.58 160.145L235.622 160.432L235.624 160.438L236.58 160.145ZM252.88 188.589L252.203 189.326L252.207 189.329L252.88 188.589ZM278.239 225.622C261.589 225.552 247.421 221.165 235.683 212.501L234.495 214.11C246.62 223.06 261.216 227.55 278.231 227.622L278.239 225.622ZM235.683 212.501C223.937 203.831 214.913 191.185 208.646 174.495L206.773 175.198C213.148 192.173 222.377 205.166 234.495 214.11L235.683 212.501ZM208.646 174.495C202.378 157.805 199.228 137.653 199.228 114.016H197.228C197.228 137.821 200.399 158.224 206.773 175.198L208.646 174.495ZM199.228 114.016C199.228 90.4492 202.378 70.3695 208.645 53.7506L206.774 53.0449C200.399 69.9487 197.228 90.281 197.228 114.016H199.228ZM208.644 53.754C214.982 37.1338 224.041 24.5213 235.789 15.85L234.601 14.2409C222.486 23.1833 213.221 36.1389 206.775 53.0414L208.644 53.754ZM235.787 15.8517C247.598 7.18584 261.731 2.83522 278.235 2.83522V0.83522C261.359 0.83522 246.799 5.29143 234.604 14.2392L235.787 15.8517ZM278.235 2.83522C294.738 2.83522 308.833 7.22034 320.571 15.9543L321.765 14.3497C309.64 5.32794 295.113 0.83522 278.235 0.83522V2.83522ZM320.574 15.9566C332.322 24.627 341.345 37.2383 347.612 53.8571L349.483 53.1514C343.108 36.2475 333.879 23.2906 321.762 14.3474L320.574 15.9566ZM347.614 53.8619C353.95 70.4078 357.136 90.45 357.136 114.016H359.136C359.136 90.2801 355.929 69.9814 349.481 53.1466L347.614 53.8619ZM357.136 114.016C357.136 137.725 353.986 157.911 347.718 174.602L349.59 175.305C355.965 158.33 359.136 137.892 359.136 114.016H357.136ZM347.718 174.6C341.451 191.219 332.427 203.868 320.678 212.61L321.872 214.214C333.986 205.201 343.215 192.21 349.59 175.306L347.718 174.6ZM320.681 212.607C308.943 221.271 294.812 225.622 278.235 225.622V227.622C295.181 227.622 309.743 223.167 321.869 214.217L320.681 212.607ZM278.235 199.178C293.417 199.178 305.264 191.731 313.725 177.05L311.992 176.052C303.834 190.207 292.599 197.178 278.235 197.178V199.178ZM313.723 177.054C322.232 162.415 326.43 141.365 326.43 114.016H324.43C324.43 141.212 320.246 161.852 311.994 176.049L313.723 177.054ZM326.43 114.016C326.43 95.8407 324.506 80.4298 320.633 67.8061L318.721 68.3927C322.518 80.769 324.43 95.969 324.43 114.016H326.43ZM320.635 67.8126C316.837 55.1289 311.327 45.4309 304.05 38.8087L302.704 40.2879C309.631 46.5918 314.988 55.9279 318.719 68.3863L320.635 67.8126ZM304.058 38.8158C296.839 32.1071 288.214 28.7471 278.235 28.7471V30.7471C287.716 30.7471 295.853 33.9212 302.696 40.2808L304.058 38.8158ZM278.235 28.7471C263.121 28.7471 251.276 36.2331 242.746 50.9794L244.477 51.9808C252.709 37.7498 263.946 30.7471 278.235 30.7471V28.7471ZM242.746 50.9794C234.239 65.6862 230.005 86.7344 229.934 114.013L231.934 114.018C232.005 86.8935 236.223 66.2512 244.477 51.9808L242.746 50.9794ZM229.934 114.016C229.934 132.26 231.822 147.74 235.622 160.432L237.538 159.858C233.81 147.408 231.934 132.135 231.934 114.016H229.934ZM235.624 160.438C239.493 173.048 245.002 182.706 252.203 189.326L253.557 187.853C246.696 181.547 241.338 172.242 237.536 159.852L235.624 160.438ZM252.207 189.329C259.43 195.896 268.125 199.178 278.235 199.178V197.178C268.601 197.178 260.392 194.067 253.553 187.85L252.207 189.329ZM391.348 180.386H390.348V181.386H391.348V180.386ZM391.348 153.753L390.503 153.218L390.348 153.463V153.753H391.348ZM485.63 4.81818V3.81818H485.08L484.785 4.28329L485.63 4.81818ZM506.618 4.81818H507.618V3.81818H506.618V4.81818ZM506.618 44.0227V45.0227H507.618V44.0227H506.618ZM493.301 44.0227V43.0227H492.75L492.455 43.4886L493.301 44.0227ZM425.865 150.77L425.019 150.236L424.865 150.48V150.77H425.865ZM425.865 152.474H424.865V153.474H425.865V152.474ZM555.091 152.474H556.091V151.474H555.091V152.474ZM555.091 180.386V181.386H556.091V180.386H555.091ZM494.792 223H493.792V224H494.792V223ZM494.792 172.29L493.792 172.272L493.792 172.281V172.29H494.792ZM495.005 160.145L496.005 160.162L496.005 160.154V160.145H495.005ZM495.005 4.81818V3.81818H494.005V4.81818H495.005ZM526.22 4.81818H527.22V3.81818H526.22V4.81818ZM526.22 223V224H527.22V223H526.22ZM392.348 180.386V153.753H390.348V180.386H392.348ZM392.193 154.288L486.475 5.35305L484.785 4.28329L390.503 153.218L392.193 154.288ZM485.63 5.81818H506.618V3.81818H485.63V5.81818ZM505.618 4.81818V44.0227H507.618V4.81818H505.618ZM506.618 43.0227H493.301V45.0227H506.618V43.0227ZM492.455 43.4886L425.019 150.236L426.71 151.304L494.146 44.5568L492.455 43.4886ZM424.865 150.77V152.474H426.865V150.77H424.865ZM425.865 153.474H555.091V151.474H425.865V153.474ZM554.091 152.474V180.386H556.091V152.474H554.091ZM555.091 179.386H391.348V181.386H555.091V179.386ZM495.792 223V172.29H493.792V223H495.792ZM495.792 172.307L496.005 160.162L494.005 160.127L493.792 172.272L495.792 172.307ZM496.005 160.145V4.81818H494.005V160.145H496.005ZM495.005 5.81818H526.22V3.81818H495.005V5.81818ZM525.22 4.81818V223H527.22V4.81818H525.22ZM526.22 222H494.792V224H526.22V222Z" fill="#222224" mask="url(#path-1-outside-1_110_533)"/>
</svg>
