<svg width="20" height="19" viewBox="0 0 20 19" fill="none" xmlns="http://www.w3.org/2000/svg">
<path d="M8.25168 3.73486L1.65071 15.6166C0.910124 16.9497 1.87406 18.5879 3.39903 18.5879H16.601C18.1259 18.5879 19.0899 16.9497 18.3493 15.6166L11.7483 3.73486C10.9863 2.36324 9.01369 2.36324 8.25168 3.73486Z" fill="#FF445A"/>
<path d="M10.5551 13.5194C10.4071 13.6473 10.222 13.7112 10 13.7112C9.77801 13.7112 9.5877 13.6473 9.42912 13.5194C9.2811 13.3824 9.20181 13.218 9.19124 13.0262L9.00093 7.36871C8.99036 7.15867 9.06965 6.97602 9.23881 6.82077C9.41854 6.66552 9.62999 6.58789 9.87316 6.58789H10.1269C10.3701 6.58789 10.5762 6.66552 10.7454 6.82077C10.9251 6.97602 11.0097 7.15867 10.9991 7.36871L10.8088 13.0262C10.7982 13.218 10.7137 13.3824 10.5551 13.5194ZM10.0476 14.8071C10.2908 14.8071 10.5022 14.8847 10.6819 15.0399C10.8617 15.1952 10.9515 15.3778 10.9515 15.5879V15.8071C10.9515 16.0171 10.8617 16.1998 10.6819 16.355C10.5022 16.5103 10.2908 16.5879 10.0476 16.5879H9.95245C9.70928 16.5879 9.49784 16.5103 9.31811 16.355C9.13837 16.1998 9.04851 16.0171 9.04851 15.8071V15.5879C9.04851 15.3778 9.13837 15.1952 9.31811 15.0399C9.49784 14.8847 9.70928 14.8071 9.95245 14.8071H10.0476Z" fill="white"/>
</svg>
