<svg width="24" height="25" viewBox="0 0 24 25" fill="none" xmlns="http://www.w3.org/2000/svg">
<path d="M10.2517 6.73486L3.65071 18.6166C2.91012 19.9497 3.87406 21.5879 5.39903 21.5879H18.601C20.1259 21.5879 21.0899 19.9497 20.3493 18.6166L13.7483 6.73486C12.9863 5.36324 11.0137 5.36324 10.2517 6.73486Z" fill="#FF445A"/>
<path d="M12.5551 16.5194C12.4071 16.6473 12.222 16.7112 12 16.7112C11.778 16.7112 11.5877 16.6473 11.4291 16.5194C11.2811 16.3824 11.2018 16.218 11.1912 16.0262L11.0009 10.3687C10.9904 10.1587 11.0697 9.97602 11.2388 9.82077C11.4185 9.66552 11.63 9.58789 11.8732 9.58789H12.1269C12.3701 9.58789 12.5762 9.66552 12.7454 9.82077C12.9251 9.97602 13.0097 10.1587 12.9991 10.3687L12.8088 16.0262C12.7982 16.218 12.7137 16.3824 12.5551 16.5194ZM12.0476 17.8071C12.2908 17.8071 12.5022 17.8847 12.6819 18.0399C12.8617 18.1952 12.9515 18.3778 12.9515 18.5879V18.8071C12.9515 19.0171 12.8617 19.1998 12.6819 19.355C12.5022 19.5103 12.2908 19.5879 12.0476 19.5879H11.9525C11.7093 19.5879 11.4978 19.5103 11.3181 19.355C11.1384 19.1998 11.0485 19.0171 11.0485 18.8071V18.5879C11.0485 18.3778 11.1384 18.1952 11.3181 18.0399C11.4978 17.8847 11.7093 17.8071 11.9525 17.8071H12.0476Z" fill="white"/>
</svg>
