<svg width="21" height="21" viewBox="0 0 21 21" fill="none" xmlns="http://www.w3.org/2000/svg">
<g clip-path="url(#clip0_3703_456)">
<path d="M20.2874 10.8135C20.2874 10.1552 20.2291 9.53021 20.1291 8.92188H10.7124V12.6802H16.1041C15.8624 13.9135 15.1541 14.9552 14.1041 15.6635V18.1635H17.3207C19.2041 16.4219 20.2874 13.8552 20.2874 10.8135Z" fill="#4285F4"/>
<path d="M10.7126 20.5878C13.4126 20.5878 15.6709 19.6878 17.3209 18.1628L14.1043 15.6628C13.2043 16.2628 12.0626 16.6294 10.7126 16.6294C8.10427 16.6294 5.89593 14.8711 5.10427 12.4961H1.7876V15.0711C3.42926 18.3378 6.80427 20.5878 10.7126 20.5878Z" fill="#34A853"/>
<path d="M5.10407 12.4971C4.89574 11.8971 4.7874 11.2555 4.7874 10.5888C4.7874 9.92213 4.90407 9.28047 5.10407 8.68047V6.10547H1.7874C1.10407 7.45547 0.712402 8.97213 0.712402 10.5888C0.712402 12.2055 1.10407 13.7221 1.7874 15.0721L5.10407 12.4971Z" fill="#FBBC05"/>
<path d="M10.7126 4.54622C12.1876 4.54622 13.5043 5.05456 14.5459 6.04623L17.3959 3.19622C15.6709 1.57956 13.4126 0.587891 10.7126 0.587891C6.80426 0.587891 3.42926 2.83789 1.7876 6.10456L5.10427 8.67956C5.89593 6.30456 8.10426 4.54622 10.7126 4.54622Z" fill="#EA4335"/>
</g>
<defs>
<clipPath id="clip0_3703_456">
<rect width="20" height="20" fill="white" transform="translate(0.5 0.587891)"/>
</clipPath>
</defs>
</svg>
