<svg width="1440" height="573" viewBox="0 0 1440 573" fill="none" xmlns="http://www.w3.org/2000/svg">
<g opacity="0.3">
<path d="M645.917 1.11475L359.842 573.018" stroke="white" stroke-width="0.55747" stroke-linecap="round" stroke-linejoin="round"/>
<path d="M424.055 1.11475L0.00146484 213.326" stroke="white" stroke-width="0.55747" stroke-linecap="round" stroke-linejoin="round"/>
<path d="M350.099 1.11475L0.00146484 141.289" stroke="white" stroke-width="0.55747" stroke-linecap="round" stroke-linejoin="round"/>
<path d="M276.15 1.11475L0 93.2578" stroke="white" stroke-width="0.55747" stroke-linecap="round" stroke-linejoin="round"/>
<path d="M498.013 1.11475L0.000488281 333.362" stroke="white" stroke-width="0.55747" stroke-linecap="round" stroke-linejoin="round"/>
<path d="M202.194 1.11475L0 58.9444" stroke="white" stroke-width="0.55747" stroke-linecap="round" stroke-linejoin="round"/>
<path d="M54.2819 1.11475L0 13.1918" stroke="white" stroke-width="0.55747" stroke-linecap="round" stroke-linejoin="round"/>
<path d="M128.238 1.11475L0 33.2072" stroke="white" stroke-width="0.55747" stroke-linecap="round" stroke-linejoin="round"/>
<path d="M1237.55 1.11475L1440 59.0492" stroke="white" stroke-width="0.55747" stroke-linecap="round" stroke-linejoin="round"/>
<path d="M719.873 1.11475L719.378 573.018" stroke="white" stroke-width="0.55747" stroke-linecap="round" stroke-linejoin="round"/>
<path d="M1311.51 1.11475L1440 33.283" stroke="white" stroke-width="0.55747" stroke-linecap="round" stroke-linejoin="round"/>
<path d="M1385.46 1.11475L1440 13.252" stroke="white" stroke-width="0.55747" stroke-linecap="round" stroke-linejoin="round"/>
<path d="M1163.6 1.11475L1440 93.3983" stroke="white" stroke-width="0.55747" stroke-linecap="round" stroke-linejoin="round"/>
<path d="M1089.64 1.11475L1440 141.483" stroke="white" stroke-width="0.55747" stroke-linecap="round" stroke-linejoin="round"/>
<path d="M941.735 1.11475L1440 333.915" stroke="white" stroke-width="0.55747" stroke-linecap="round" stroke-linejoin="round"/>
<path d="M1015.69 1.11475L1440 213.638" stroke="white" stroke-width="0.55747" stroke-linecap="round" stroke-linejoin="round"/>
<path d="M793.83 1.11475L1078.92 573.018" stroke="white" stroke-width="0.55747" stroke-linecap="round" stroke-linejoin="round"/>
<path d="M571.961 1.11475L0.307129 573.018" stroke="white" stroke-width="0.55747" stroke-linecap="round" stroke-linejoin="round"/>
<path d="M867.779 1.11475L1438.45 573.018" stroke="white" stroke-width="0.55747" stroke-linecap="round" stroke-linejoin="round"/>
<path d="M1440 79.1638H0.00146484" stroke="white" stroke-width="0.55747" stroke-linecap="round" stroke-linejoin="round"/>
<path d="M1440 26.8239H0.00146484" stroke="white" stroke-width="0.55747" stroke-linecap="round" stroke-linejoin="round"/>
<path d="M1440 37.4953H0.00146484" stroke="white" stroke-width="0.55747" stroke-linecap="round" stroke-linejoin="round"/>
<path d="M1440 49.5646H0.00146484" stroke="white" stroke-width="0.55747" stroke-linecap="round" stroke-linejoin="round"/>
<path d="M1440 8.79756H0.00146484" stroke="white" stroke-width="0.55747" stroke-linecap="round" stroke-linejoin="round"/>
<path d="M1440 17.3186H0.00146484" stroke="white" stroke-width="0.55747" stroke-linecap="round" stroke-linejoin="round"/>
<path d="M1440 421.622H0.00146484" stroke="white" stroke-width="0.55747" stroke-linecap="round" stroke-linejoin="round"/>
<path d="M1440 97.5744H0.00146484" stroke="white" stroke-width="0.55747" stroke-linecap="round" stroke-linejoin="round"/>
<path d="M1440 63.3308H0.00146484" stroke="white" stroke-width="0.55747" stroke-linecap="round" stroke-linejoin="round"/>
<path d="M1440 1.11494H0.00146484" stroke="white" stroke-width="0.55747" stroke-linecap="round" stroke-linejoin="round"/>
<path d="M1440 119.246H0.00146484" stroke="white" stroke-width="0.55747" stroke-linecap="round" stroke-linejoin="round"/>
<path d="M1440 145.137H0.00146484" stroke="white" stroke-width="0.55747" stroke-linecap="round" stroke-linejoin="round"/>
<path d="M1440 331.121H0.00146484" stroke="white" stroke-width="0.55747" stroke-linecap="round" stroke-linejoin="round"/>
<path d="M1440 176.608H0.00146484" stroke="white" stroke-width="0.55747" stroke-linecap="round" stroke-linejoin="round"/>
<path d="M1440 215.677H0.00146484" stroke="white" stroke-width="0.55747" stroke-linecap="round" stroke-linejoin="round"/>
<path d="M1440 265.475H0.00146484" stroke="white" stroke-width="0.55747" stroke-linecap="round" stroke-linejoin="round"/>
</g>
</svg>
