<svg width="189" height="30" viewBox="0 0 189 30" fill="none" xmlns="http://www.w3.org/2000/svg">
<path d="M12.6268 19.2642C11.6032 19.2642 10.7696 19.1385 10.126 18.8843C9.47929 18.6238 8.96135 18.296 8.56905 17.9039C8.18289 17.5056 7.89786 17.0675 7.71091 16.5926C7.5209 16.1116 7.37072 15.649 7.25732 15.2078L9.43945 14.8892C9.67544 15.7409 10.0524 16.3169 10.5673 16.6171C11.0822 16.9204 11.7687 17.0705 12.6268 17.0705C12.8873 17.0705 13.1724 17.0522 13.485 17.0093C13.8037 16.9602 14.101 16.8836 14.3799 16.7764C14.6557 16.6631 14.8886 16.5129 15.0787 16.323C15.2656 16.1269 15.3606 15.8818 15.3606 15.5877C15.3606 15.312 15.2687 15.0454 15.0909 14.7911C14.9193 14.5399 14.6618 14.3438 14.3186 14.2029C14.0642 14.1048 13.77 14.0068 13.4359 13.9088C13.108 13.8046 12.7402 13.6821 12.3326 13.5411C11.3764 13.3205 10.5918 13.0754 9.97885 12.8058C9.37203 12.5362 8.90005 12.239 8.55679 11.9112C8.21967 11.5865 7.98674 11.2341 7.85802 10.8573C7.72624 10.4835 7.66188 10.073 7.66188 9.63181C7.66188 9.19982 7.75382 8.77396 7.94384 8.3573C8.13998 7.94063 8.42501 7.56992 8.80198 7.2421C9.18507 6.91735 9.66625 6.6508 10.2486 6.44553C10.837 6.24333 11.5174 6.13916 12.2958 6.13916C13.2337 6.13916 14.0029 6.26171 14.6006 6.50681C15.1951 6.74578 15.6732 7.04296 16.0349 7.40142C16.4026 7.75374 16.6723 8.13671 16.844 8.55338C17.0156 8.96392 17.1505 9.33463 17.2485 9.66857L15.0664 9.9872C14.9683 9.62874 14.8212 9.34382 14.6251 9.12936C14.4289 8.90877 14.1991 8.74333 13.9386 8.62691C13.6842 8.51355 13.4145 8.43695 13.1295 8.39406C12.8506 8.35423 12.5717 8.33279 12.2958 8.33279C11.4438 8.33279 10.8002 8.43695 10.3589 8.63916C9.91756 8.83524 9.71528 9.1845 9.75819 9.68083C9.78271 9.93512 9.91756 10.1557 10.1627 10.3426C10.4141 10.5325 10.7083 10.6949 11.0454 10.8328C11.3887 10.9645 11.7319 11.0779 12.0752 11.1759C12.4184 11.274 12.6943 11.3567 12.9088 11.421C13.8711 11.66 14.6649 11.9173 15.2871 12.1931C15.9061 12.4627 16.3935 12.7629 16.7459 13.0877C17.1045 13.4063 17.3527 13.7586 17.4937 14.1416C17.6408 14.5184 17.7144 14.9229 17.7144 15.3548C17.7144 15.7807 17.5948 16.2249 17.3589 16.6906C17.1198 17.1502 16.7827 17.5699 16.3413 17.9529C15.9 18.3389 15.3637 18.6514 14.7354 18.8965C14.1041 19.1416 13.4022 19.2642 12.6268 19.2642Z" fill="white"/>
<path d="M23.6593 14.4604V19.1908H21.3301V6.21289H27.1164C27.6803 6.21289 28.2105 6.32318 28.7101 6.54377C29.2066 6.75823 29.6448 7.05235 30.0218 7.42613C30.3957 7.80296 30.6899 8.24108 30.9045 8.7374C31.1159 9.23679 31.2232 9.76681 31.2232 10.3305C31.2232 10.9126 31.1159 11.4519 30.9045 11.9482C30.6899 12.4476 30.3957 12.8857 30.0218 13.2595C29.6448 13.6363 29.2066 13.9304 28.7101 14.1418C28.2105 14.3563 27.6803 14.4604 27.1164 14.4604H23.6593ZM23.6593 8.40652V12.2546H27.1164C27.3677 12.2546 27.6098 12.2055 27.8397 12.1075C28.0757 12.0095 28.2841 11.8747 28.4649 11.7031C28.6427 11.5254 28.7836 11.3201 28.8817 11.0903C28.9798 10.8544 29.0288 10.6001 29.0288 10.3305C29.0288 10.0701 28.9798 9.82502 28.8817 9.59524C28.7836 9.35934 28.6427 9.15407 28.4649 8.9825C28.2841 8.8048 28.0757 8.66387 27.8397 8.56583C27.6098 8.46166 27.3677 8.40652 27.1164 8.40652H23.6593Z" fill="white"/>
<path d="M35.5351 16.8869C35.6332 16.3661 35.7466 15.8544 35.8784 15.355C36.0071 14.8495 36.1389 14.3379 36.2707 13.8232H34.8486V11.605H43.1236V13.8232H38.7103L38.3793 15.0364C38.1892 15.7227 38.0667 16.2221 38.0115 16.5315C37.9625 16.844 38.0605 16.9972 38.3057 16.9972H44.374V19.1908H36.4546C36.1757 19.1908 35.9581 19.1265 35.8048 18.9948C35.6577 18.8661 35.5505 18.6945 35.4861 18.48C35.4279 18.2687 35.4064 18.0236 35.4248 17.7448C35.4493 17.469 35.4861 17.181 35.5351 16.8869ZM34.8486 6.21289H44.374V8.43103H34.8486V6.21289Z" fill="white"/>
<path d="M60.2812 16.1269C59.6989 17.1012 58.9113 17.8855 57.9152 18.4798C56.9253 19.0681 55.822 19.3622 54.6052 19.3622C53.6981 19.3622 52.843 19.1906 52.0431 18.8475C51.2401 18.4982 50.5383 18.0234 49.9345 17.4259C49.3369 16.8316 48.8618 16.133 48.5124 15.3303C48.1692 14.5215 47.9976 13.6606 47.9976 12.7446C47.9976 11.8377 48.1692 10.986 48.5124 10.1833C48.8618 9.37445 49.3369 8.67286 49.9345 8.07543C50.5383 7.48107 51.2401 7.00926 52.0431 6.66612C52.843 6.31686 53.6981 6.13916 54.6052 6.13916C55.7239 6.13916 56.7537 6.39345 57.6945 6.89896C58.6416 7.40754 59.4108 8.08463 59.9993 8.93328L58.3075 10.3548C57.906 9.73597 57.3819 9.24578 56.7383 8.88426C56.0917 8.51661 55.3806 8.33279 54.6052 8.33279C53.9923 8.33279 53.4192 8.45227 52.889 8.68818C52.3649 8.92715 51.9021 9.23965 51.5037 9.63181C51.1022 10.024 50.7865 10.4958 50.5597 11.0411C50.3299 11.5803 50.2165 12.1502 50.2165 12.7446C50.2165 13.3665 50.3299 13.9455 50.5597 14.4847C50.7865 15.0178 51.1022 15.4774 51.5037 15.8696C51.9021 16.2617 52.3649 16.5773 52.889 16.8132C53.4192 17.043 53.9923 17.1563 54.6052 17.1563C55.4695 17.1563 56.251 16.9327 56.9467 16.4823C57.6486 16.035 58.1788 15.4498 58.5404 14.7298L60.2812 16.1269Z" fill="white"/>
<path d="M72.8721 6.21289L73.5954 8.02662L74.3187 6.21289H76.8441L74.8459 11.1639L76.8073 16.0536L80.7548 6.21289H83.2924L78.0823 19.1908H75.5569L73.5954 14.3134L71.634 19.1908H69.1086L63.8984 6.21289H66.4361L70.3835 16.0536L72.3327 11.1639L70.3467 6.21289H72.8721Z" fill="white"/>
<path d="M86.9097 19.1908V6.21289H89.2634V19.1908H86.9097Z" fill="white"/>
<path d="M111.861 13.3452C112.204 12.4966 112.529 11.6541 112.842 10.8207C113.151 9.98127 113.507 9.151 113.908 8.33299C114.006 8.1124 114.117 7.87956 114.239 7.63446C114.362 7.38936 114.497 7.16265 114.644 6.94818C114.797 6.7276 114.981 6.55296 115.196 6.42122C115.416 6.28336 115.668 6.21289 115.956 6.21289C116.25 6.21289 116.507 6.28642 116.728 6.43348C116.949 6.58054 117.139 6.76436 117.304 6.98495C117.476 7.19941 117.623 7.43225 117.745 7.68348C117.868 7.93777 117.985 8.1798 118.101 8.40652C118.475 9.22453 118.818 10.0456 119.131 10.8698C119.44 11.697 119.759 12.5211 120.087 13.3452L122.453 19.1908H119.928L117.562 13.3452C117.273 12.6682 117.022 12.0524 116.802 11.4948C116.703 11.2588 116.605 11.026 116.507 10.7962C116.415 10.5603 116.33 10.3428 116.25 10.1467C116.176 9.95064 116.115 9.78826 116.066 9.65652C116.017 9.51865 115.983 9.42368 115.968 9.37466C115.959 9.42368 115.925 9.51865 115.87 9.65652C115.812 9.78826 115.747 9.95064 115.674 10.1467C115.6 10.3428 115.517 10.5603 115.428 10.7962C115.337 11.026 115.245 11.2588 115.147 11.4948C114.917 12.0524 114.662 12.6682 114.386 13.3452L112.02 19.1908H109.507L111.861 13.3452Z" fill="white"/>
<path d="M128.427 14.4604V19.1908H126.073V6.21289H131.871C132.435 6.21289 132.965 6.32318 133.465 6.54377C133.962 6.75823 134.4 7.05235 134.777 7.42613C135.151 7.80296 135.445 8.24108 135.659 8.7374C135.88 9.23679 135.99 9.76681 135.99 10.3305C135.99 11.0658 135.819 11.7399 135.476 12.3526C135.132 12.9653 134.669 13.4555 134.09 13.8232C134.556 14.3318 135.034 15.0119 135.525 15.8698C136.021 16.7215 136.594 17.8275 137.241 19.1908H134.532C134.066 18.1461 133.649 17.3128 133.281 16.6908C132.919 16.072 132.582 15.5971 132.264 15.2693C131.945 14.9445 131.62 14.73 131.295 14.632C130.976 14.534 130.627 14.4788 130.253 14.4604H128.427ZM128.427 8.40652V12.2546H131.871C132.132 12.2546 132.377 12.2055 132.607 12.1075C132.843 12.0095 133.051 11.8747 133.232 11.7031C133.41 11.5254 133.551 11.3201 133.649 11.0903C133.747 10.8544 133.796 10.6001 133.796 10.3305C133.796 10.0701 133.747 9.82502 133.649 9.59524C133.551 9.35934 133.41 9.15407 133.232 8.9825C133.051 8.8048 132.843 8.66387 132.607 8.56583C132.377 8.46166 132.132 8.40652 131.871 8.40652H128.427Z" fill="white"/>
<path d="M140.866 6.21289L146.198 6.2374C147.063 6.2711 147.878 6.46412 148.638 6.81338C149.404 7.16571 150.066 7.6314 150.624 8.21044C151.188 8.79255 151.629 9.46963 151.948 10.2448C152.273 11.0137 152.438 11.8348 152.438 12.708C152.438 13.5842 152.273 14.4084 151.948 15.1835C151.629 15.9525 151.188 16.6296 150.624 17.2178C150.066 17.7999 149.404 18.2656 148.638 18.6149C147.878 18.958 147.063 19.151 146.198 19.1908H140.866V6.21289ZM146.198 8.43103H143.195V16.9972H146.198C146.769 16.9574 147.302 16.8226 147.792 16.5928C148.283 16.3569 148.705 16.0505 149.067 15.6737C149.435 15.2907 149.72 14.8465 149.925 14.3379C150.137 13.8324 150.244 13.2901 150.244 12.708C150.244 12.1443 150.137 11.6112 149.925 11.1026C149.72 10.5879 149.435 10.1437 149.067 9.76681C148.705 9.38385 148.283 9.07747 147.792 8.84769C147.302 8.61179 146.769 8.47392 146.198 8.43103Z" fill="white"/>
<path d="M157.291 19.1907C156.954 19.1907 156.666 19.0743 156.42 18.8353C156.181 18.5902 156.065 18.3053 156.065 17.9774C156.065 17.6435 156.181 17.3586 156.42 17.1196C156.666 16.8745 156.954 16.752 157.291 16.752C157.616 16.752 157.898 16.8745 158.137 17.1196C158.382 17.3586 158.505 17.6435 158.505 17.9774C158.505 18.3053 158.382 18.5902 158.137 18.8353C157.898 19.0743 157.616 19.1907 157.291 19.1907Z" fill="white"/>
<path d="M164.476 13.3452C164.82 12.4966 165.144 11.6541 165.457 10.8207C165.767 9.98127 166.122 9.151 166.524 8.33299C166.622 8.1124 166.732 7.87956 166.855 7.63446C166.977 7.38936 167.112 7.16265 167.259 6.94818C167.412 6.7276 167.596 6.55296 167.811 6.42122C168.031 6.28336 168.283 6.21289 168.571 6.21289C168.865 6.21289 169.123 6.28642 169.343 6.43348C169.564 6.58054 169.754 6.76436 169.919 6.98495C170.091 7.19941 170.238 7.43225 170.361 7.68348C170.483 7.93777 170.6 8.1798 170.716 8.40652C171.09 9.22453 171.433 10.0456 171.746 10.8698C172.056 11.697 172.374 12.5211 172.702 13.3452L175.068 19.1908H172.543L170.177 13.3452C169.889 12.6682 169.637 12.0524 169.417 11.4948C169.319 11.2588 169.221 11.026 169.123 10.7962C169.031 10.5603 168.945 10.3428 168.865 10.1467C168.792 9.95064 168.73 9.78826 168.681 9.65652C168.632 9.51865 168.598 9.42368 168.583 9.37466C168.574 9.42368 168.54 9.51865 168.485 9.65652C168.427 9.78826 168.362 9.95064 168.289 10.1467C168.215 10.3428 168.133 10.5603 168.044 10.7962C167.952 11.026 167.86 11.2588 167.762 11.4948C167.532 12.0524 167.278 12.6682 167.002 13.3452L164.636 19.1908H162.123L164.476 13.3452Z" fill="white"/>
<path d="M178.688 19.1908V6.21289H181.042V19.1908H178.688Z" fill="white"/>
<mask id="mask0_24_665" style="mask-type:luminance" maskUnits="userSpaceOnUse" x="92" y="0" width="15" height="20">
<path d="M92.4126 0.263672H106.842V19.608H92.4126V0.263672Z" fill="white"/>
</mask>
<g mask="url(#mask0_24_665)">
<path fill-rule="evenodd" clip-rule="evenodd" d="M103.161 2.40845C103.296 2.40845 103.415 2.35637 103.504 2.26752C103.59 2.17561 103.642 2.05306 103.642 1.91519C103.642 1.77732 103.59 1.65478 103.504 1.56593C103.415 1.47402 103.296 1.42193 103.161 1.42193C103.026 1.42193 102.906 1.47402 102.821 1.56593C102.732 1.65478 102.68 1.77732 102.68 1.91519C102.68 2.05306 102.732 2.17561 102.821 2.26752C102.906 2.35637 103.026 2.40845 103.161 2.40845ZM94.9594 17.9906H98.1039L97.258 19.504H92.4126L93.0501 18.3674L97.6289 10.2301L97.7852 9.95441L98.6035 8.50527L99.4524 6.99179L100.911 4.39987L101.815 2.78529C101.662 2.531 101.567 2.23382 101.567 1.91213C101.567 1.4587 101.745 1.05735 102.033 0.760168C102.324 0.462987 102.716 0.282227 103.158 0.282227C103.596 0.282227 103.988 0.462987 104.279 0.760168C104.571 1.05735 104.745 1.4587 104.745 1.91213C104.745 2.3625 104.571 2.76691 104.279 3.06409C103.988 3.36127 103.596 3.53897 103.158 3.53897C103.136 3.53897 103.109 3.53897 103.09 3.53897L101.147 6.99179L100.298 8.50527L99.0571 10.7081V10.7112L94.9594 17.9906ZM106.842 17.9906H101.497L100.648 19.504H106.842V17.9906Z" fill="#B000EB"/>
</g>
<mask id="mask1_24_665" style="mask-type:luminance" maskUnits="userSpaceOnUse" x="92" y="6" width="15" height="21">
<path d="M92.4126 6.27441H106.842V26.2254H92.4126V6.27441Z" fill="white"/>
</mask>
<g mask="url(#mask1_24_665)">
<path fill-rule="evenodd" clip-rule="evenodd" d="M96.0965 24.0837C95.9616 24.0837 95.8452 24.1358 95.7563 24.2277C95.6674 24.3166 95.6153 24.4391 95.6153 24.577C95.6153 24.7149 95.6674 24.8374 95.7563 24.9293C95.8452 25.0182 95.9616 25.0703 96.0965 25.0703C96.2313 25.0703 96.3508 25.0182 96.4397 24.9293C96.5255 24.8374 96.5776 24.7149 96.5776 24.577C96.5776 24.4391 96.5255 24.3166 96.4397 24.2277C96.3508 24.1358 96.2283 24.0837 96.0965 24.0837ZM101.996 6.99121H106.842L106.204 8.12785L101.469 16.5408L100.651 17.99L99.7987 19.5035L97.4327 23.7008C97.589 23.9551 97.681 24.2522 97.681 24.577C97.681 25.0274 97.5063 25.4318 97.2151 25.729C96.927 26.0261 96.5317 26.2069 96.0934 26.2069C95.6521 26.2069 95.2598 26.0261 94.9686 25.729C94.6805 25.4318 94.5028 25.0274 94.5028 24.577C94.5028 24.1266 94.6805 23.7222 94.9686 23.425C95.2598 23.1279 95.6521 22.9471 96.0934 22.9471C96.1118 22.9471 96.1394 22.9471 96.1608 22.9471L98.1008 19.4973L98.9498 17.9839L99.6578 16.7277L99.9336 16.2314L100.185 15.781V15.7872L104.286 8.50469H101.138L101.996 6.99121ZM96.0965 8.50469H97.7576L98.6065 6.99121H92.4126V8.50469H96.0965Z" fill="#004DE8"/>
</g>
</svg>
